<svg xmlns="http://www.w3.org/2000/svg" viewBox="0 0 165.42 31.59"><defs><style>.cls-1{fill:#1f464b;}</style></defs><g id="Capa_2" data-name="Capa 2"><g id="Capa_1-2" data-name="Capa 1"><path class="cls-1" d="M0,31.59,0,7.72H12v.83H10.88c-1,0-1.65.34-1.65.84a5,5,0,0,0,.41,1.78L15,24.26l1.33-3.19c-2.64-1.8-4.15-5-4.15-8.77,0-6.64,4.41-10.23,8.56-10.23a9.12,9.12,0,0,1,4.53,1.38,2.3,2.3,0,0,0,1,.29c.31,0,.64-.19,1-1.52l0-.15h.74l.27,8h-.85l0-.15c-1.15-4.45-3.63-7-6.8-7-3.63,0-5.8,3.46-5.8,9.26A11.56,11.56,0,0,0,17,19.53l3.13-7.46a8,8,0,0,0,.73-2.51c0-.91-1.29-1-1.84-1H18.2V7.72h6.59v.8l-.18,0c-1.7.21-2,.49-3,2.67l-3.94,9a5,5,0,0,0,3.35,1.23c3.37,0,5.84-2.52,6.61-6.76l0-.16h1l0,.23c-.8,4.87-3.71,7.66-8,7.66a7.73,7.73,0,0,1-3.59-.9l-2.77,6.35h-.92L6,10.43A2.54,2.54,0,0,0,3.23,8.55H.82l0,22.22h29V.83H.23V0H30.68V31.59Z"/><path class="cls-1" d="M.43.2V.62H30.06V31H.64l0-22.62H3.24a2.73,2.73,0,0,1,2.93,2l7.42,17.37h.65L17,21.28a7.53,7.53,0,0,0,3.69,1c4.13,0,7-2.73,7.78-7.49h-.65c-.75,4.11-3.16,6.93-6.8,6.93a5.25,5.25,0,0,1-3.6-1.38l4-9.2c1-2.22,1.33-2.56,3.12-2.78V7.92H18.4v.43H19c1,0,2.05.31,2.05,1.21a8,8,0,0,1-.75,2.59L17,19.91c-1.56-1.71-2.4-4.5-2.4-7.72,0-5.55,2-9.46,6-9.46,3.06,0,5.76,2.39,7,7.15h.49l-.26-7.6h-.4c-.35,1.29-.71,1.66-1.2,1.66a2.56,2.56,0,0,1-1.11-.31,8.88,8.88,0,0,0-4.42-1.35c-4.29,0-8.36,3.8-8.36,10,0,4.05,1.76,7.09,4.21,8.7L15,24.79,9.45,11.25A5.2,5.2,0,0,1,9,9.39c0-.57.62-1,1.85-1h.92V7.92H.2l0,23.25v.21H30.48V.2Z"/><path class="cls-1" d="M36.67,4.63A2,2,0,0,0,34.58,3.2V2.9h6.11v.3H40c-.88,0-1.33.34-1.33.74A3.68,3.68,0,0,0,39,5.27L43,15l3.78-9a5.59,5.59,0,0,0,.54-1.85c0-.64-.72-.86-1.47-.86h-.41V2.9h4.41v.3c-1.28.16-1.53.4-2.23,2L42.43,17H42Z"/><path class="cls-1" d="M47.61,15c0-1.71,1.77-2.62,6.14-3.5v-.59c0-1.93-.89-2.59-2.28-2.59s-2.32.46-2.32.82c0,.06,0,.08.11.08a1,1,0,0,1,1,.89,1,1,0,0,1-1.05.92,1,1,0,0,1-1-1c0-1,1.27-2,3.76-2,1.86,0,3.49.58,3.49,2.95v4.13c0,.84.27,1.1.6,1.1.56,0,.79-.5.81-1.61h.33c0,1.92-.81,2.28-1.77,2.28S53.63,16.4,53.75,15h0a3.78,3.78,0,0,1-3.46,1.93C48.75,16.88,47.61,16.23,47.61,15Zm6.14-1.73V11.77c-3.56.62-4.21,1.69-4.21,2.83a1.48,1.48,0,0,0,1.63,1.57C52.31,16.17,53.75,15.45,53.75,13.22Z"/><path class="cls-1" d="M57.42,16.38h.09c1.05,0,1.28-.25,1.28-1.21V4.36c0-1-.23-1.2-1.28-1.2h-.19V2.88l3.12-.31v12.6c0,1,.23,1.21,1.25,1.21h.19v.28H57.42Z"/><path class="cls-1" d="M62.69,12.49A4.5,4.5,0,0,1,67.2,8a3.82,3.82,0,0,1,4,3.84c0,.06,0,.5,0,.6H64.6c0,2.21,1,3.92,3,3.92a4,4,0,0,0,3.46-1.75l.25.17A4.92,4.92,0,0,1,67.11,17,4.15,4.15,0,0,1,62.69,12.49Zm5.39-.42c.93,0,1.19-.26,1.19-.91,0-1.6-.65-2.91-2.14-2.91s-2.46,1.51-2.53,3.82Z"/><path class="cls-1" d="M72.22,16.46l6.36-8H76.49c-2.16,0-3,.94-3.62,3.06h-.24l.26-3.32h7.62v.16l-6.39,8h2.65c2.44,0,3.21-1.25,3.63-3.24h.23l-.26,3.5H72.22Z"/><path class="cls-1" d="M81.53,16.38h.12c1,0,1.25-.23,1.25-1.13V4.3c0-.92-.23-1.14-1.25-1.14h-.21V2.88l3.11-.31V13.14l3.51-3.26c.47-.43.61-.63.61-.89s-.42-.48-1.19-.52V8.25h4.09v.22A3.45,3.45,0,0,0,89,9.62l-1.91,1.69s3.37,4.1,3.37,4.1a2,2,0,0,0,1.67,1v.28H87.85V16.4c.75-.07,1-.25,1-.47s0-.22-.3-.54L86,12.27l-1.49,1.29v1.69c0,.9.24,1.13,1.28,1.13H86v.28H81.53Z"/><path class="cls-1" d="M92.43,15c0-1.71,1.77-2.62,6.13-3.5v-.59c0-1.93-.88-2.59-2.27-2.59S94,8.73,94,9.09c0,.06,0,.08.12.08a1,1,0,0,1,1,.89A1,1,0,0,1,94,11,1,1,0,0,1,93,10c0-1,1.28-2,3.77-2,1.86,0,3.48.58,3.48,2.95v4.13c0,.84.28,1.1.61,1.1.55,0,.79-.5.81-1.61H102c0,1.92-.81,2.28-1.76,2.28S98.45,16.4,98.56,15h0a3.78,3.78,0,0,1-3.46,1.93C93.57,16.88,92.43,16.23,92.43,15Zm6.13-1.73V11.77c-3.55.62-4.2,1.69-4.2,2.83A1.48,1.48,0,0,0,96,16.17C97.12,16.17,98.56,15.45,98.56,13.22Z"/><path class="cls-1" d="M108,9.86a6.86,6.86,0,0,1,6.48-7.17,6.36,6.36,0,0,1,3.16,1,1.86,1.86,0,0,0,.79.22c.35,0,.6-.26.86-1.19h.28l.19,5.44h-.35c-.89-3.4-2.82-5.11-5-5.11-2.83,0-4.13,2.79-4.13,6.76,0,3.82,1.48,6.8,4.43,6.8,2.61,0,4.32-2,4.86-4.95h.46C119.5,15,117.45,17,114.5,17A6.85,6.85,0,0,1,108,9.86Z"/><path class="cls-1" d="M121.42,12.43A4.64,4.64,0,0,1,126,8a4.59,4.59,0,0,1,4.53,4.44,4.55,4.55,0,1,1-9.09,0Zm7.14,0c0-2.33-.7-4.22-2.58-4.22s-2.58,1.85-2.58,4.18.65,4.27,2.58,4.27S128.56,14.77,128.56,12.45Z"/><path class="cls-1" d="M131.37,16.38h.16c1,0,1.26-.23,1.26-1.13V9.62c0-.91-.28-1.13-1.26-1.13h-.16V8.25l3.09-.16-.16,3.4h0c.72-2.2,1.88-3.5,3.42-3.5,1.18,0,1.86.6,1.86,1.3a1.1,1.1,0,0,1-1.17,1.19c-.58,0-1-.32-1-.82a1,1,0,0,1,.49-.81c.11-.08.18-.14.18-.24s-.23-.2-.51-.2c-1.67,0-3.09,2.86-3.09,4.44v2.4c0,.9.23,1.13,1.26,1.13h.53v.28h-4.9Z"/><path class="cls-1" d="M141.38,14.34V8.55H139.8V8.31c1.49-.22,2.72-1.11,2.95-3.7h.3V8.23h3.14v.32h-3.14v5.89c0,1.27.54,1.89,1.58,1.89s1.72-.9,1.82-2.67h.32c0,2.05-1,3.26-2.72,3.26A2.36,2.36,0,0,1,141.38,14.34Z"/><path class="cls-1" d="M147.45,12.49A4.49,4.49,0,0,1,152,8a3.82,3.82,0,0,1,4,3.84,4.54,4.54,0,0,1,0,.6h-6.55c0,2.21,1,3.92,3,3.92a4,4,0,0,0,3.46-1.75l.26.17A4.94,4.94,0,0,1,151.86,17,4.14,4.14,0,0,1,147.45,12.49Zm5.39-.42c.92,0,1.18-.26,1.18-.91,0-1.6-.65-2.91-2.14-2.91s-2.46,1.51-2.53,3.82ZM150.67,7l2.05-2.37A1.62,1.62,0,0,1,154,3.94a.8.8,0,0,1,.86.69c0,.32-.18.66-.88,1l-3.09,1.49Z"/><path class="cls-1" d="M158.57,16.15a1,1,0,0,0-.83.69h-.23V13.42h.2a4.12,4.12,0,0,0,4.09,3.16c1.38,0,2.35-.69,2.35-1.63s-.72-1.25-3.07-1.83c-2-.51-3.46-1-3.46-2.72,0-1.45,1.26-2.35,3-2.35,1.35,0,2,.52,2.67.52a.86.86,0,0,0,.84-.5h.23v3h-.21a3.51,3.51,0,0,0-3.64-2.79c-1.07,0-1.93.6-1.93,1.49s.9,1.24,2.86,1.69c2.53.58,3.67,1.2,3.67,2.79s-1.42,2.56-3.42,2.56C160.27,16.86,159.13,16.15,158.57,16.15Z"/><path class="cls-1" d="M34.58,28.86v-.41H35c.5,0,.58-.1.58-.45V22.78c0-.35-.08-.45-.58-.45h-.46v-.41h3.23c1.84,0,2.89.69,2.89,1.89s-1.17,2-3.05,2h-.83V28c0,.34.08.45.59.45h.64v.41Zm3.1-3.45c1.48,0,1.68-.79,1.68-1.56s-.13-1.52-1.61-1.52h-.34c-.51,0-.59.1-.59.45v2.63Z"/><path class="cls-1" d="M34.71,28.58H35c.52,0,.71-.12.71-.58V22.78c0-.47-.19-.59-.71-.59h-.33v-.14h3.1c1.63,0,2.76.56,2.76,1.76s-1.31,1.88-2.92,1.88h-1V28c0,.46.2.58.72.58h.51v.15H34.71Zm3-3c1.66,0,1.81-1,1.81-1.69s-.17-1.66-1.74-1.66h-.34c-.52,0-.72.12-.72.59v2.76Z"/><path class="cls-1" d="M44.25,29a4.27,4.27,0,0,1-1.89-.42,1.46,1.46,0,0,0-.53-.19c-.11,0-.23.19-.31.5l0,.1h-.38L41,26.05h.42l0,.1a2.86,2.86,0,0,0,2.83,2.4,1.23,1.23,0,0,0,1.38-1.2c0-.75-.72-1.09-2-1.42s-2.6-.7-2.6-2.17a2,2,0,0,1,2.18-1.94,3,3,0,0,1,1.64.46.74.74,0,0,0,.39.14c.07,0,.17-.06.32-.5l0-.09H46l.09,2.89h-.41l0-.1c-.43-1.76-1.51-2.39-2.38-2.39A1.22,1.22,0,0,0,42,23.38c0,.57.13,1,1.93,1.41,1.64.41,2.59.9,2.59,2.19A2.05,2.05,0,0,1,44.25,29Z"/><path class="cls-1" d="M42.37,28.41a1.32,1.32,0,0,0-.54-.18c-.19,0-.33.2-.43.6h-.15l-.08-2.65h.17a3,3,0,0,0,3,2.5,1.36,1.36,0,0,0,1.51-1.33c0-.89-.89-1.24-2.06-1.55s-2.51-.63-2.51-2a1.91,1.91,0,0,1,2-1.81,2.84,2.84,0,0,1,1.57.44.81.81,0,0,0,.46.17c.18,0,.3-.16.45-.6h.14L46,24.59h-.17c-.44-1.84-1.57-2.49-2.5-2.49a1.35,1.35,0,0,0-1.49,1.28c0,.7.29,1.11,2,1.54s2.48.86,2.48,2.06a1.91,1.91,0,0,1-2.09,1.86A4.12,4.12,0,0,1,42.37,28.41Z"/><path class="cls-1" d="M46.71,28.86v-.41h.49c.5,0,.58-.11.58-.45V22.78c0-.35-.08-.45-.58-.45h-.49v-.41h3.36v.41h-.49c-.49,0-.58.11-.58.45V28c0,.34.09.45.58.45h.49v.41Z"/><path class="cls-1" d="M46.84,28.58h.36c.52,0,.71-.12.71-.58V22.78c0-.47-.19-.59-.71-.59h-.36v-.14h3.09v.14h-.35c-.51,0-.71.12-.71.59V28c0,.46.2.58.71.58h.35v.15H46.84Z"/><path class="cls-1" d="M53.63,29a3.46,3.46,0,0,1-3.29-3.59,3.46,3.46,0,0,1,3.29-3.61,3.26,3.26,0,0,1,1.6.48.71.71,0,0,0,.32.09c.05,0,.15,0,.29-.48l0-.09h.37l.1,2.9h-.41l0-.1c-.39-1.51-1.23-2.38-2.3-2.38s-1.88,1.14-1.88,3.15c0,1.53.54,3.17,2,3.17,1.13,0,2-.86,2.23-2.3l0-.1h.49l0,.15A2.84,2.84,0,0,1,53.63,29Z"/><path class="cls-1" d="M50.48,25.43A3.34,3.34,0,0,1,53.63,22a3,3,0,0,1,1.53.47.89.89,0,0,0,.39.11c.17,0,.29-.13.41-.58h.14l.09,2.64H56c-.43-1.65-1.37-2.48-2.43-2.48-1.38,0-2,1.35-2,3.28s.72,3.3,2.16,3.3c1.26,0,2.1-1,2.36-2.4h.23a2.72,2.72,0,0,1-2.7,2.6A3.32,3.32,0,0,1,50.48,25.43Z"/><path class="cls-1" d="M60.13,29a3.65,3.65,0,1,1,3.31-3.65A3.55,3.55,0,0,1,60.13,29Zm0-6.84c-1.27,0-1.91,1.07-1.91,3.19s.65,3.23,1.93,3.23,1.92-1.08,1.92-3.19S61.42,22.18,60.13,22.18Z"/><path class="cls-1" d="M57,25.41a3.18,3.18,0,1,1,3.15,3.48A3.4,3.4,0,0,1,57,25.41Zm5.22,0c0-1.81-.49-3.36-2.07-3.36s-2,1.51-2,3.32.48,3.36,2.06,3.36S62.2,27.21,62.2,25.41Z"/><path class="cls-1" d="M63.66,28.86v-.41h.46c.5,0,.58-.1.58-.45V22.78c0-.35-.08-.45-.58-.45h-.46v-.41h3.47v.41h-.64c-.51,0-.59.1-.59.45V28c0,.34.08.45.59.45H67c1.69,0,2-.75,2.12-2.34l0-.12h.44l-.21,2.87Z"/><path class="cls-1" d="M63.79,28.58h.33c.52,0,.71-.12.71-.58V22.78c0-.47-.19-.59-.71-.59h-.33v-.14H67v.14h-.51c-.52,0-.72.12-.72.59V28c0,.46.2.58.72.58H67c1.83,0,2.09-.88,2.26-2.46h.18l-.2,2.61H63.79Z"/><path class="cls-1" d="M73.13,29a3.65,3.65,0,1,1,3.3-3.65A3.55,3.55,0,0,1,73.13,29Zm0-6.84c-1.27,0-1.91,1.07-1.91,3.19s.65,3.23,1.93,3.23,1.91-1.08,1.91-3.19S74.41,22.18,73.13,22.18Z"/><path class="cls-1" d="M70,25.41a3.18,3.18,0,1,1,6.32,0,3.18,3.18,0,1,1-6.32,0Zm5.22,0c0-1.81-.49-3.36-2.07-3.36s-2,1.51-2,3.32.49,3.36,2.07,3.36S75.2,27.21,75.2,25.41Z"/><path class="cls-1" d="M82.51,29l0-.09c-.13-.34-.31-.49-.44-.49a.79.79,0,0,0-.33.11A2.54,2.54,0,0,1,80.2,29a3.58,3.58,0,0,1,0-7.13,3,3,0,0,1,1.54.46.69.69,0,0,0,.38.11c.09,0,.23-.13.31-.5l0-.1h.23l.13.12.1,2.72H82.5l0-.09c-.45-1.44-1.31-2.3-2.32-2.3-1.29,0-1.88,1.58-1.88,3.15s.63,3.12,2,3.12a1.27,1.27,0,0,0,1.43-1.17v-.81c0-.38-.11-.46-.58-.46h-.51v-.41h3v.41h-.13c-.55,0-.66.08-.66.46V29Z"/><path class="cls-1" d="M77.05,25.43A3.34,3.34,0,0,1,80.2,22a2.84,2.84,0,0,1,1.48.45.77.77,0,0,0,.44.13c.17,0,.35-.18.44-.61h.12l.09,2.58H82.6c-.47-1.53-1.39-2.39-2.44-2.39-1.38,0-2,1.6-2,3.28s.74,3.25,2.17,3.25a1.4,1.4,0,0,0,1.56-1.3v-.81c0-.48-.2-.6-.71-.6H80.8v-.14h2.72v.14h-.08c-.51,0-.71.12-.71.6v2.29H82.6c-.14-.39-.37-.58-.56-.58a.9.9,0,0,0-.4.13,2.44,2.44,0,0,1-1.44.45A3.3,3.3,0,0,1,77.05,25.43Z"/><path class="cls-1" d="M83.68,28.86v-.41h.49c.5,0,.58-.1.58-.45V22.78c0-.35-.08-.45-.58-.45h-.49v-.41H87v.41h-.48c-.5,0-.58.11-.58.45V28c0,.34.08.45.58.45H87v.41Zm.93-7.28,1.09-1.26a1,1,0,0,1,.71-.37.52.52,0,0,1,.55.47q0,.36-.51.6l-1.57.76Z"/><path class="cls-1" d="M83.81,28.58h.36c.52,0,.71-.12.71-.58V22.78c0-.47-.19-.59-.71-.59h-.36v-.14h3.1v.14h-.35c-.51,0-.72.12-.72.59V28c0,.46.21.58.72.58h.35v.15h-3.1Zm1-7,1-1.15a.78.78,0,0,1,.61-.33.39.39,0,0,1,.42.34c0,.15-.09.32-.43.48l-1.51.73Z"/><path class="cls-1" d="M91.27,28.86v-.41h.46c.34,0,.53-.12.53-.23a2.08,2.08,0,0,0-.21-.72l-.35-.84H88.93l-.21.52a2.3,2.3,0,0,0-.24.9c0,.16,0,.37.5.37h.35v.41H86.92v-.39l.11,0c.57-.07.75-.35,1-1l2.44-5.72h.42l2.59,6.11a.85.85,0,0,0,.9.61h.13v.4Zm.26-2.61-1.21-3-1.22,3Z"/><path class="cls-1" d="M87.05,28.58c.63-.08.84-.4,1.13-1.08l2.41-5.64h.24l2.56,6a1,1,0,0,0,1,.69v.15h-3v-.15h.33c.43,0,.66-.16.66-.36a2,2,0,0,0-.22-.77l-.39-.92H88.85l-.25.6a2.38,2.38,0,0,0-.25.95c0,.33.21.5.63.5h.22v.15H87.05Zm4.68-2.2-1.41-3.45L88.9,26.38Z"/><path class="cls-1" d="M99.68,29a2,2,0,0,1-2.17-1.91c0-.95.54-1.64,1.8-2.27a3.28,3.28,0,0,1-.2-1.1,1.73,1.73,0,0,1,1.76-1.86c.83,0,1.35.43,1.35,1.11s-.47,1.11-1.82,1.79c.13.28.3.61.53,1a13.36,13.36,0,0,0,1,1.56,2.82,2.82,0,0,0,.65-1.72c0-.38-.21-.51-.89-.52h-.13v-.4h2.84v.39h-.12c-.72,0-.94.18-1.13.76a5.75,5.75,0,0,1-.93,1.83c.36.43.68.65.94.65.52,0,.79-.36.82-1.07v-.13h.4v.13a1.5,1.5,0,0,1-1.54,1.69,2,2,0,0,1-1.37-.55A2.93,2.93,0,0,1,99.68,29Zm-.22-3.77a1.59,1.59,0,0,0-.87,1.51A1.51,1.51,0,0,0,100,28.37a2,2,0,0,0,1.09-.33,11.6,11.6,0,0,1-1.66-2.85Zm1.38-3c-.5,0-.8.54-.8,1.06a2.84,2.84,0,0,0,.2,1c1-.53,1.12-.89,1.12-1.39C101.36,22.66,101.22,22.22,100.84,22.22Z"/><path class="cls-1" d="M97.64,27.05c0-1,.6-1.6,1.83-2.2a3.42,3.42,0,0,1-.23-1.17A1.6,1.6,0,0,1,100.87,22c.76,0,1.22.39,1.22,1s-.41,1-1.86,1.72c.14.32.32.68.59,1.18a13.87,13.87,0,0,0,1.08,1.7,3,3,0,0,0,.79-1.93c0-.52-.37-.64-1-.65v-.14h2.57V25c-.73,0-1,.18-1.24.85a5.82,5.82,0,0,1-1,1.87,1.7,1.7,0,0,0,1.11.78c.58,0,.92-.4,1-1.2h.15a1.37,1.37,0,0,1-1.41,1.56,2,2,0,0,1-1.36-.59,2.8,2.8,0,0,1-1.79.61A1.84,1.84,0,0,1,97.64,27.05Zm3.67,1a9,9,0,0,1-1.2-1.8A8.85,8.85,0,0,1,99.53,25a1.76,1.76,0,0,0-1.07,1.7A1.64,1.64,0,0,0,100,28.5,2.07,2.07,0,0,0,101.31,28.06Zm.19-5.12c0-.36-.2-.85-.66-.85s-.93.61-.93,1.19a3,3,0,0,0,.26,1.24C101.26,23.93,101.5,23.52,101.5,22.94Z"/><path class="cls-1" d="M111,29l-2.45-5.67v4.06c0,.89.17,1.08,1,1.08h.13l0,.13v.28H107v-.41h.27c.64,0,.85-.16.85-1.08V22.79c0-.35-.08-.46-.58-.46h-.46v-.41h2.3l2.24,5.41,2.27-5.41H116v.41h-.44c-.51,0-.6.11-.6.45V28c0,.34.09.46.6.46H116v.41h-3.27v-.41h.46c.49,0,.57-.12.57-.46V23.34L111.4,29Z"/><path class="cls-1" d="M108.48,22.72h0v4.65c0,1,.23,1.21,1.09,1.21h0v.15h-2.48v-.15h.13c.74,0,1-.24,1-1.21V22.79c0-.47-.19-.6-.71-.6h-.33v-.14h2.08l2.33,5.62L114,22.05h1.93v.14h-.31c-.51,0-.73.12-.73.59V28c0,.46.22.59.73.59h.31v.15h-3v-.15h.33c.51,0,.71-.13.71-.59V22.72h0l-2.58,6.13h-.18Z"/><path class="cls-1" d="M116,28.86v-.41h.45c.5,0,.58-.12.58-.46v-5.2c0-.35-.08-.46-.58-.46H116v-.41h6l.12,2.66h-.4v-.11c-.24-1.45-.61-2.14-2.13-2.14h-.71c-.51,0-.59.1-.59.45v2.27h.44c.9,0,1.29-.38,1.3-1.28v-.13h.41V27H120v-.13c0-.94-.41-1.36-1.3-1.36h-.44V28c0,.34.08.45.59.45h.92c1.53,0,1.83-.93,2.12-2.36l0-.1h.4l-.21,2.87Z"/><path class="cls-1" d="M116.11,28.58h.32c.52,0,.72-.13.72-.59v-5.2c0-.47-.2-.6-.72-.6h-.32v-.14h5.7l.11,2.4h-.14c-.24-1.48-.65-2.26-2.26-2.26h-.71c-.52,0-.73.12-.73.59v2.4h.58c1.11,0,1.42-.59,1.43-1.4h.15v3h-.15c0-.82-.31-1.48-1.43-1.48h-.58V28c0,.46.21.58.73.58h.92c1.6,0,2-1,2.25-2.46h.15l-.19,2.61h-5.83Z"/><path class="cls-1" d="M122.69,28.86v-.41h.46c.5,0,.58-.11.58-.45V22.78c0-.34-.08-.45-.58-.45h-.46v-.41h3.23a3.49,3.49,0,0,1,3.73,3.45c0,2.12-1.47,3.49-3.75,3.49Zm2.84-6.53c-.51,0-.6.11-.6.44V28c0,.33.09.44.6.44h.4c1.67,0,2.41-.94,2.41-3s-.79-3.08-2.42-3.08Z"/><path class="cls-1" d="M122.83,28.58h.32c.52,0,.71-.13.71-.58V22.78c0-.46-.19-.59-.71-.59h-.32v-.14h3.09a3.34,3.34,0,0,1,3.6,3.32c0,2.25-1.68,3.36-3.62,3.36h-3.07Zm3.1,0c1.74,0,2.54-1,2.54-3.17s-.82-3.22-2.55-3.22h-.39c-.52,0-.73.12-.73.58V28c0,.45.21.57.73.57Z"/><path class="cls-1" d="M129.93,28.86v-.41h.5c.5,0,.58-.1.58-.45V22.78c0-.35-.08-.45-.58-.45h-.5v-.41h3.36v.41h-.48c-.5,0-.58.11-.58.45V28c0,.34.08.45.58.45h.48v.41Z"/><path class="cls-1" d="M130.06,28.58h.37c.52,0,.71-.12.71-.58V22.78c0-.47-.19-.59-.71-.59h-.37v-.14h3.1v.14h-.35c-.51,0-.71.12-.71.59V28c0,.46.2.58.71.58h.35v.15h-3.1Z"/><path class="cls-1" d="M137.52,28.86v-.41H138c.35,0,.54-.12.54-.23a2.19,2.19,0,0,0-.22-.72l-.35-.84h-2.76l-.22.52a2.6,2.6,0,0,0-.24.9c0,.16.06.37.51.37h.34v.41h-2.41v-.39l.12,0c.57-.07.74-.35,1-1l2.44-5.72h.43l2.58,6.11a.85.85,0,0,0,.9.61h.13v.4Zm.26-2.61-1.21-3-1.22,3Z"/><path class="cls-1" d="M133.3,28.58c.64-.08.84-.4,1.13-1.08l2.41-5.64h.25l2.55,6a1,1,0,0,0,1,.69v.15h-3v-.15H138c.43,0,.67-.16.67-.36a2.1,2.1,0,0,0-.23-.77l-.38-.92H135.1l-.25.6a2.56,2.56,0,0,0-.25.95c0,.33.22.5.64.5h.21v.15H133.3Zm4.68-2.2-1.41-3.45-1.41,3.45Z"/><path class="cls-1" d="M143.82,29a3.45,3.45,0,0,1-3.28-3.59,3.45,3.45,0,0,1,3.28-3.61,3.26,3.26,0,0,1,1.6.48.74.74,0,0,0,.32.09s.16,0,.29-.48l0-.09h.36l.1,2.9h-.41l0-.1c-.4-1.51-1.24-2.38-2.31-2.38s-1.88,1.14-1.88,3.15c0,1.53.54,3.17,2,3.17,1.14,0,2-.86,2.23-2.3l0-.1h.49l0,.15A2.87,2.87,0,0,1,143.82,29Z"/><path class="cls-1" d="M140.67,25.43A3.34,3.34,0,0,1,143.82,22a3,3,0,0,1,1.53.47.93.93,0,0,0,.39.11c.17,0,.29-.13.42-.58h.13l.09,2.64h-.17c-.43-1.65-1.36-2.48-2.43-2.48-1.37,0-2,1.35-2,3.28s.73,3.3,2.16,3.3c1.27,0,2.1-1,2.36-2.4h.23a2.72,2.72,0,0,1-2.7,2.6A3.32,3.32,0,0,1,140.67,25.43Z"/><path class="cls-1" d="M147,28.86v-.41h.49c.51,0,.58-.1.58-.45V22.78c0-.35-.07-.45-.58-.45H147v-.41h3.36v.41h-.48c-.5,0-.58.11-.58.45V28c0,.34.08.45.58.45h.48v.41Z"/><path class="cls-1" d="M147.08,28.58h.36c.52,0,.72-.12.72-.58V22.78c0-.47-.2-.59-.72-.59h-.36v-.14h3.1v.14h-.35c-.51,0-.72.12-.72.59V28c0,.46.21.58.72.58h.35v.15h-3.1Z"/><path class="cls-1" d="M153.87,29a3.65,3.65,0,1,1,3.3-3.65A3.55,3.55,0,0,1,153.87,29Zm0-6.84c-1.27,0-1.92,1.07-1.92,3.19,0,1.47.34,3.23,1.94,3.23,1.27,0,1.91-1.08,1.91-3.19C155.8,23.93,155.47,22.18,153.87,22.18Zm-.79-.6,1.08-1.26a1,1,0,0,1,.71-.37.52.52,0,0,1,.55.47c0,.24-.16.44-.5.6l-1.57.76Z"/><path class="cls-1" d="M150.72,25.41a3.18,3.18,0,1,1,6.32,0,3.18,3.18,0,1,1-6.32,0Zm5.22,0c0-1.81-.49-3.36-2.07-3.36s-2.05,1.51-2.05,3.32.49,3.36,2.07,3.36S155.94,27.21,155.94,25.41Zm-2.67-3.85,1-1.15a.8.8,0,0,1,.61-.33.39.39,0,0,1,.42.34c0,.15-.09.32-.43.48l-1.5.73Z"/><path class="cls-1" d="M163.85,29,159,23.38v4c0,.93.22,1.07,1,1.07h.13l0,.13v.28h-2.78v-.41h.28c.65,0,.86-.16.86-1.07V22.72a2,2,0,0,0-1.1-.39h-.13v-.4h1.94l4.57,5.29V23.4c0-.88-.18-1.07-1-1.07h-.13l0-.14v-.27h2.78v.41h-.27c-.64,0-.87.16-.87,1.07V29Z"/><path class="cls-1" d="M158.87,23v4.36c0,1,.24,1.2,1.1,1.2h0v.15h-2.52v-.15h.15c.74,0,1-.23,1-1.2V22.72a1.81,1.81,0,0,0-1.23-.53v-.14h1.81l4.7,5.52V23.4c0-1-.24-1.21-1.1-1.21h0v-.14h2.52v.14h-.14c-.74,0-1,.25-1,1.21v5.46h-.3Z"/></g></g></svg>