<svg xmlns="http://www.w3.org/2000/svg" viewBox="0 0 161.19 203.82"><defs><style>.cls-1{fill:#d1a246;}</style></defs><g id="Capa_2" data-name="Capa 2"><g id="Capa_1-2" data-name="Capa 1"><path class="cls-1" d="M1.18,0V2.13H151.36V156H2.24L2.12,41.28H15.39c8.74.43,11.71,2.86,14.85,10.14l37.6,88.08h3.3l14.21-32.63a38.09,38.09,0,0,0,18.71,5c21,0,35.46-13.85,39.42-38h-3.3c-3.79,20.84-16,35.11-34.47,35.11a26.64,26.64,0,0,1-18.25-7l20.3-46.61c4.95-11.28,6.76-13,15.83-14.14V39.14H92.25v2.14h3c5.28,0,10.39,1.57,10.39,6.14,0,3.43-1.81,8.42-3.79,13.13L85.32,99.9c-7.94-8.68-12.19-22.8-12.19-39.14,0-28.12,10.31-48,30.43-48,15.51,0,29.2,12.13,35.47,36.26h2.47l-1.32-38.55h-2c-1.81,6.57-3.63,8.43-6.1,8.43a13,13,0,0,1-5.61-1.57c-6.43-3.72-14-6.86-22.43-6.86-21.77,0-42.38,19.28-42.38,50.82,0,20.5,8.91,36,21.32,44.09l-8.06,19.23L46.9,56a25.9,25.9,0,0,1-2.15-9.42c0-2.86,3.14-5.29,9.4-5.29h4.62V39.14H0L.11,157v1.07H153.49V0Z"/><path class="cls-1" d="M2.5,170.73a2.29,2.29,0,0,0-2.44-1.67v-.4H8v.4H7.23c-1,0-1.5.42-1.5.89a4.27,4.27,0,0,0,.35,1.53L10.51,182l4.16-9.78a5.9,5.9,0,0,0,.57-2.14c0-.71-.65-1-1.6-1h-.49v-.4h5.24v.4c-1.52.18-1.93.68-2.64,2.32l-6,13.78H8.94Z"/><path class="cls-1" d="M15.67,182.69c0-1.81,1.8-3,7.15-4v-.64c0-2.26-.79-3.17-2.5-3.17-1.47,0-2.72.61-2.72,1,0,.17.11.17.35.17a1.17,1.17,0,0,1,1.25,1.12,1.27,1.27,0,0,1-1.38,1.18,1.29,1.29,0,0,1-1.41-1.27c0-1.34,1.44-2.56,4.59-2.56,2.55,0,4.45.84,4.45,3.59V183c0,.78.33,1.08.71,1.08s.78-.47.92-1.08l.33.12A2.09,2.09,0,0,1,25,184.93a2.06,2.06,0,0,1-2.2-2.31h-.06A4.49,4.49,0,0,1,18.71,185C17,185,15.67,184.2,15.67,182.69Zm7.15-2V179.1c-3.53.63-4.29,1.88-4.29,3.17a1.45,1.45,0,0,0,1.54,1.6A3,3,0,0,0,22.82,180.72Z"/><path class="cls-1" d="M27.79,184.36h.11c1.11,0,1.52-.28,1.52-1.43V170.47c0-1.16-.3-1.46-1.61-1.46h-.19v-.38l4.4-.42v14.72c0,1.15.33,1.43,1.52,1.43h.14v.38H27.79Z"/><path class="cls-1" d="M34.63,179.8a5.49,5.49,0,0,1,5.6-5.36,4.76,4.76,0,0,1,5,4.7,5.06,5.06,0,0,1,0,.68H37.56c0,2.73,1.12,4.4,3.35,4.4A4.72,4.72,0,0,0,45,182.08l.38.19a6,6,0,0,1-5.22,2.82C37,185.09,34.63,183.07,34.63,179.8Zm6.3-.4c1.09,0,1.39-.35,1.39-1.17,0-1.89-.66-3.41-2.18-3.41s-2.52,1.71-2.58,4.58Z"/><path class="cls-1" d="M46.39,184.48l7.23-9.31h-2.2c-2.61,0-3.62,1.29-4.21,3.76h-.33l.33-4.11h9.45V175l-7.31,9.33h2.77c2.91,0,3.78-1.67,4.21-4h.33l-.35,4.35H46.39Z"/><path class="cls-1" d="M57.83,184.36h.11c1.19,0,1.46-.35,1.46-1.34V170.35c0-1-.27-1.34-1.46-1.34h-.17v-.38l4.24-.35v12l3.88-3.52c.52-.47.68-.73.68-1s-.43-.54-1.27-.61v-.33H70v.33a4.17,4.17,0,0,0-3,1.34l-1.87,1.62,3.75,5.12a2.12,2.12,0,0,0,1.92,1.13v.38H65.3v-.38c.76,0,1-.23,1-.51s-.09-.33-.3-.62l-2.58-3.52L62,180.86V183c0,1,.24,1.34,1.47,1.34h.13v.38H57.83Z"/><path class="cls-1" d="M71.46,182.69c0-1.81,1.79-3,7.14-4v-.64c0-2.26-.78-3.17-2.49-3.17-1.47,0-2.72.61-2.72,1,0,.17.11.17.35.17A1.17,1.17,0,0,1,75,177.14a1.28,1.28,0,0,1-1.38,1.18,1.29,1.29,0,0,1-1.42-1.27c0-1.34,1.44-2.56,4.6-2.56,2.55,0,4.45.84,4.45,3.59V183c0,.78.33,1.08.71,1.08s.78-.47.92-1.08l.32.12a2.33,2.33,0,0,1-4.59-.52h0a4.49,4.49,0,0,1-4,2.38C72.76,185,71.46,184.2,71.46,182.69Zm7.14-2V179.1c-3.53.63-4.29,1.88-4.29,3.17a1.45,1.45,0,0,0,1.55,1.6A3,3,0,0,0,78.6,180.72Z"/><path class="cls-1" d="M89.66,176.79a8.08,8.08,0,0,1,8-8.37,7.4,7.4,0,0,1,3.53,1,2.36,2.36,0,0,0,1,.29c.43,0,.81-.21,1.11-1.27h.38l.22,6.44h-.46c-1-3.93-3.24-6.09-5.84-6.09-3.15,0-4.4,3.39-4.4,7.88s1.41,7.8,4.72,7.8c2.88,0,5-2.09,5.68-5.64h.6c-.66,3.95-3.18,6.26-6.63,6.26A8.06,8.06,0,0,1,89.66,176.79Z"/><path class="cls-1" d="M105.66,179.75a5.56,5.56,0,0,1,5.65-5.31,5.47,5.47,0,0,1,5.56,5.27,5.61,5.61,0,0,1-11.21,0Zm8.17,0c0-2.8-.68-5-2.58-5s-2.55,2.11-2.55,4.91.65,5,2.61,5S113.83,182.58,113.83,179.78Z"/><path class="cls-1" d="M117.88,184.36H118c1.19,0,1.46-.37,1.46-1.31v-6.56c0-.94-.27-1.32-1.46-1.32h-.14v-.35l4.26-.22-.24,3.7h0c.82-2.17,2.2-3.81,4-3.81,1.28,0,2.2.63,2.2,1.71a1.46,1.46,0,0,1-1.54,1.53c-.85,0-1.39-.45-1.39-1.13a1.22,1.22,0,0,1,.63-1c.19-.1.29-.17.29-.28s-.19-.19-.46-.19c-1.74,0-3.53,2.58-3.53,5v2.92c0,1,.27,1.31,1.47,1.31h.62v.38h-6.38Z"/><path class="cls-1" d="M129.83,182v-6.77H128v-.29c2-.3,3.62-1.36,4-4.23h.46v4.09H136v.43h-3.48V182c0,1.37.49,2.14,1.66,2.14s1.87-.82,1.95-3h.41c0,2.64-1.19,3.95-3.34,3.95S129.83,184.08,129.83,182Z"/><path class="cls-1" d="M137.33,179.8a5.49,5.49,0,0,1,5.59-5.36,4.77,4.77,0,0,1,5,4.7c0,.12,0,.57,0,.68h-7.61c0,2.73,1.11,4.4,3.34,4.4a4.72,4.72,0,0,0,4.07-2.14l.39.19a6,6,0,0,1-5.22,2.82C139.69,185.09,137.33,183.07,137.33,179.8Zm6.3-.4c1.08,0,1.38-.35,1.38-1.17,0-1.89-.65-3.41-2.17-3.41s-2.53,1.71-2.58,4.58Zm-2.2-6.14,2.14-2.61a1.87,1.87,0,0,1,1.58-.8,1,1,0,0,1,1,1c0,.42-.22.77-1.17,1.17l-3.39,1.41Z"/><path class="cls-1" d="M150.88,184.17c-.43,0-.73.26-.95.78h-.33v-4H150a4.79,4.79,0,0,0,4.67,3.62c1.66,0,2.53-.78,2.53-1.72s-.73-1.39-3.29-2-4.18-1.25-4.18-3.34c0-1.88,1.63-3,3.91-3,1.6,0,2.23.59,3,.59a1,1,0,0,0,1-.59H158V178h-.41a4,4,0,0,0-4.08-3.08c-1.22,0-2.06.64-2.06,1.58,0,1.1,1.06,1.41,3.12,1.9,2.69.66,4.35,1.39,4.35,3.37s-1.71,3.19-4.37,3.19C152.78,185,151.61,184.17,150.88,184.17Z"/><path class="cls-1" d="M.12,203.43H.4c.6,0,.84-.15.84-.7v-6c0-.55-.24-.69-.84-.69H.12v-.21h4c2.22,0,3.47.8,3.47,2.21s-1.47,2.32-3.68,2.32H3.12v2.38c0,.55.22.7.83.7h.5v.21H.12Zm3.79-3.31c1.21,0,1.63-.84,1.63-2.05s-.43-2-1.46-2H4c-.61,0-.83.13-.83.68v3.41Z"/><path class="cls-1" d="M10.61,203.51a7.24,7.24,0,0,0-1.16-.42c-.2,0-.47.14-.63.65h-.2l-.09-3h.22a3.54,3.54,0,0,0,3.45,2.81c1.09,0,1.69-.58,1.69-1.32s-.44-1.22-2.14-1.63c-2.15-.52-3.14-1.13-3.14-2.6s1.15-2.29,2.72-2.29a4.16,4.16,0,0,1,1.84.46,1.15,1.15,0,0,0,.49.16c.21,0,.44-.11.6-.62h.19l.1,3h-.23c-.47-2-1.55-2.78-3-2.78-1,0-1.63.49-1.63,1.2s.37,1.23,2.18,1.66C14,199.32,15,200,15,201.41s-1.35,2.35-2.84,2.35A5.08,5.08,0,0,1,10.61,203.51Z"/><path class="cls-1" d="M15.53,203.43h.31c.61,0,.85-.24.85-.7v-6c0-.48-.24-.69-.85-.69h-.31v-.21H19.7V196h-.32c-.59,0-.82.2-.82.69v6c0,.5.23.7.82.7h.32v.21H15.53Z"/><path class="cls-1" d="M20.33,199.77a4,4,0,0,1,4-4.06,3.59,3.59,0,0,1,1.63.45,1.26,1.26,0,0,0,.52.15c.22,0,.45-.07.59-.56h.2l.11,3.18h-.25c-.43-1.89-1.54-3-2.84-3s-1.92,1.69-1.92,3.82.52,3.72,2.06,3.72c1.34,0,2.41-.89,2.77-2.67h.31a3.3,3.3,0,0,1-3.28,3A3.93,3.93,0,0,1,20.33,199.77Z"/><path class="cls-1" d="M28.37,199.75a3.94,3.94,0,0,1,4-4.11,3.88,3.88,0,0,1,4,4.07,3.93,3.93,0,0,1-4,4.11A3.89,3.89,0,0,1,28.37,199.75Zm5.91,0c0-2.2-.39-3.91-1.92-3.91s-1.92,1.66-1.92,3.87.39,3.9,1.93,3.9S34.28,202,34.28,199.75Z"/><path class="cls-1" d="M36.86,203.43h.28c.6,0,.84-.25.84-.7v-6c0-.42-.24-.69-.84-.69h-.28v-.21h4.28V196h-.45c-.61,0-.83.25-.83.69v6c0,.45.22.69.83.69h.46c1.78,0,2.3-1.22,2.55-3.11h.23l-.19,3.33H36.86Z"/><path class="cls-1" d="M44.5,199.75a3.94,3.94,0,0,1,4-4.11,3.88,3.88,0,0,1,4,4.07,3.94,3.94,0,0,1-4,4.11A3.89,3.89,0,0,1,44.5,199.75Zm5.92,0c0-2.2-.4-3.91-1.93-3.91s-1.91,1.66-1.91,3.87.38,3.9,1.92,3.9S50.42,202,50.42,199.75Z"/><path class="cls-1" d="M53.27,199.77a4,4,0,0,1,4.06-4.06,3.46,3.46,0,0,1,1.72.46,1.1,1.1,0,0,0,.53.15c.22,0,.43-.1.59-.61h.2l.11,3.13h-.26c-.55-2-1.64-2.93-2.89-2.93s-2,1.41-2,3.82.58,3.77,2.06,3.77c.9,0,1.35-.43,1.35-1.49v-1c0-.44-.28-.69-.84-.69h-.34v-.21h3.78v.21h-.1c-.52,0-.73.15-.73.69v2.75h-.26c-.17-.46-.5-.84-.77-.84a.79.79,0,0,0-.49.22,2.48,2.48,0,0,1-1.68.64A3.92,3.92,0,0,1,53.27,199.77Z"/><path class="cls-1" d="M61.69,203.43H62c.61,0,.84-.24.84-.7v-6c0-.48-.23-.69-.84-.69h-.32v-.21h4.17V196h-.31c-.6,0-.82.2-.82.69v6c0,.5.22.7.82.7h.31v.21H61.69Zm1.41-8.25-.08-.1.94-1.19a.82.82,0,0,1,.79-.4.58.58,0,0,1,.54.58c0,.23-.14.4-.64.57Z"/><path class="cls-1" d="M66.07,203.43c.65,0,1-.4,1.28-1.13l3-6.66h.5l3.19,7a1.16,1.16,0,0,0,1.2.81v.21H71.05v-.22h.4c.48,0,.67-.21.68-.43a1.46,1.46,0,0,0-.17-.72L71.39,201H68.33l-.39.87a2.61,2.61,0,0,0-.27,1c0,.32.25.52.75.52h.24v.21H66.07Zm5.22-2.69-1.44-3.16-1.41,3.16Z"/><path class="cls-1" d="M78,201.63c0-1.28,1.09-2,2.34-2.5a4.22,4.22,0,0,1-.24-1.34,2,2,0,0,1,2.17-2.08c1.24,0,1.91.59,1.91,1.32s-.95,1.38-2.19,1.78a10.72,10.72,0,0,0,.74,1.42,11,11,0,0,0,1.16,1.66,3.71,3.71,0,0,0,.77-2c0-.5-.53-.66-1.27-.67V199h3v.19a1.22,1.22,0,0,0-1.37,1,7,7,0,0,1-.9,1.85,1.71,1.71,0,0,0,1.25.58c.54,0,.83-.38.86-1h.19c0,1.27-.62,2.08-1.85,2.08a2.77,2.77,0,0,1-1.59-.62,3.32,3.32,0,0,1-2,.64C79.18,203.75,78,202.89,78,201.63Zm4.77,1.31a9.45,9.45,0,0,1-1.72-2.2,8.39,8.39,0,0,1-.62-1.32,2.39,2.39,0,0,0-.64,1.67c0,1.38.62,2.19,1.86,2.19A2.21,2.21,0,0,0,82.8,202.94Zm0-5.84c0-.72-.14-1.19-.49-1.19s-.58.42-.58,1.25a4.46,4.46,0,0,0,.26,1.44A1.73,1.73,0,0,0,82.75,197.1Z"/><path class="cls-1" d="M90.91,196.61h-.06V202c0,1,.27,1.42,1.27,1.42h0v.21H89.26v-.21h.06c.86,0,1.16-.36,1.16-1.42v-5.29c0-.49-.23-.69-.84-.69h-.28v-.21h3.1l2.27,5.77L97,195.82h3.1V196h-.27c-.57,0-.85.21-.85.69v6c0,.48.25.7.85.7h.27v.21H95.88v-.21h.4c.59,0,.82-.23.82-.7v-6.12H97l-2.82,7.15h-.46Z"/><path class="cls-1" d="M100.33,203.43h.28c.61,0,.84-.22.84-.7v-6c0-.45-.23-.69-.84-.69h-.28v-.21h7.12l.13,2.94h-.25c-.2-1.5-.87-2.72-2.33-2.72h-.84c-.61,0-.83.2-.83.68v2.75h.61c1.13,0,1.5-.69,1.51-1.68h.24v3.68h-.24c0-1-.37-1.78-1.51-1.78h-.61v3c0,.51.22.69.83.69h1c1.55,0,2.19-1.43,2.41-3h.24l-.22,3.18h-7.28Z"/><path class="cls-1" d="M108.57,203.43h.28c.6,0,.84-.2.84-.7v-6c0-.49-.24-.69-.84-.69h-.28v-.21h4c2.35,0,4.15,1.37,4.15,3.89s-1.75,3.93-4.15,3.93h-4Zm4.05,0c1.31,0,2.06-1.4,2.06-3.68S114,196,112.6,196h-.24c-.58,0-.79.18-.79.67v6.06c0,.49.22.67.79.67Z"/><path class="cls-1" d="M117.39,203.43h.32c.6,0,.84-.24.84-.7v-6c0-.48-.24-.69-.84-.69h-.32v-.21h4.17V196h-.32c-.59,0-.82.2-.82.69v6c0,.5.23.7.82.7h.32v.21h-4.17Z"/><path class="cls-1" d="M121.77,203.43c.65,0,1-.4,1.28-1.13l3-6.66h.51l3.19,7a1.16,1.16,0,0,0,1.2.81v.21h-4.22v-.22h.39c.49,0,.68-.21.69-.43a1.58,1.58,0,0,0-.17-.72l-.57-1.27H124l-.4.87a2.75,2.75,0,0,0-.26,1c0,.32.25.52.75.52h.24v.21h-2.59Zm5.22-2.69-1.44-3.16-1.42,3.16Z"/><path class="cls-1" d="M130.81,199.77a4,4,0,0,1,4-4.06,3.67,3.67,0,0,1,1.64.45,1.22,1.22,0,0,0,.51.15c.23,0,.45-.07.6-.56h.19l.11,3.18h-.25c-.42-1.89-1.53-3-2.84-3s-1.91,1.69-1.91,3.82.51,3.72,2.06,3.72c1.33,0,2.4-.89,2.77-2.67h.3a3.29,3.29,0,0,1-3.27,3A3.94,3.94,0,0,1,130.81,199.77Z"/><path class="cls-1" d="M138.7,203.43H139c.61,0,.85-.24.85-.7v-6c0-.48-.24-.69-.85-.69h-.31v-.21h4.17V196h-.32c-.59,0-.82.2-.82.69v6c0,.5.23.7.82.7h.32v.21H138.7Z"/><path class="cls-1" d="M143.5,199.75a3.94,3.94,0,0,1,4-4.11,3.88,3.88,0,0,1,4,4.07,3.93,3.93,0,0,1-4,4.11A3.89,3.89,0,0,1,143.5,199.75Zm5.91,0c0-2.2-.39-3.91-1.92-3.91s-1.92,1.66-1.92,3.87.39,3.9,1.93,3.9S149.41,202,149.41,199.75Zm-2.58-4.57-.08-.1.94-1.19a.82.82,0,0,1,.79-.4.58.58,0,0,1,.54.58c0,.23-.15.4-.65.57Z"/><path class="cls-1" d="M153.64,197v4.92c0,1.13.21,1.51,1.21,1.51h.06v.21H152v-.21h.12c.87,0,1.16-.38,1.16-1.51v-5.29A2.23,2.23,0,0,0,152,196v-.21h3l4.55,5.43v-3.72c0-1.13-.22-1.5-1.22-1.5h-.06v-.21h2.92V196h-.11c-.87,0-1.16.37-1.16,1.5v6.22h-.59Z"/></g></g></svg>