<svg xmlns="http://www.w3.org/2000/svg" viewBox="0 0 360.74 426.73"><defs><style>.cls-1{fill:#1a4146;}</style></defs><g id="Capa_2" data-name="Capa 2"><g id="Capa_1-2" data-name="Capa 1"><path class="cls-1" d="M5.41,395.21c-1.19-2.62-2.26-3.5-5.41-3.65v-.93H19.07v.93H17.35c-2.26,0-3.09,1-3.09,2a8.13,8.13,0,0,0,.77,3.35L24.3,418.3l8.49-19.8a11.62,11.62,0,0,0,1.07-4.58c0-1.44-1-2.36-3.27-2.36H29.52v-.93H41.17v.93c-3.33.41-4.4,2.06-5.77,5.14l-13.12,30H19.9Z"/><path class="cls-1" d="M35.4,421.28c0-3.65,3.45-6.43,15.63-8.64v-1.23c0-5-1.25-7.2-5.17-7.2-3.15,0-5.88,1.44-5.88,2.11,0,.46.41.41,1.19.41,1.72,0,3,1,3,2.67,0,1.54-1.43,2.83-3.39,2.83-2.2,0-3.56-1.44-3.56-3.09,0-3.13,3-6,10.51-6,6.41,0,10.57,2.21,10.57,8.17v11.06c0,1.44.78,1.9,1.61,1.9a3.38,3.38,0,0,0,2-.67l.47.52c-1.19,1.23-2.79,2.11-5.76,2.11-3.21,0-5.58-1.91-5.58-5.3h-.18a9.79,9.79,0,0,1-8.79,5.45C38.2,426.37,35.4,424.57,35.4,421.28ZM51,417v-3.44c-6.42,1.28-8.08,4-8.08,6.68,0,2.06,1.07,3,2.85,3C47.82,423.23,51,420.66,51,417Z"/><path class="cls-1" d="M63.38,424.88h.24c2.26,0,3.32-.62,3.32-3.19V394.75c0-2.57-.65-3.24-3.68-3.24H63v-.93l11.23-1.08v32.19c0,2.57.83,3.19,3.39,3.19h.12v.93H63.38Z"/><path class="cls-1" d="M79.83,414.9c0-7,6.36-11.87,12.89-11.87,6,0,11.59,4.16,11.59,10.74,0,.36-.06,1.19-.06,1.39H87.68c.17,6.27,2.25,9.31,6.95,9.31a10.62,10.62,0,0,0,9-5l.9.51a13.45,13.45,0,0,1-11.94,6.59C85.66,426.58,79.83,422.15,79.83,414.9Zm13.73-.77c2.37,0,3-.82,3-2.77,0-4.12-1.25-7.41-4-7.41-3.09,0-4.76,3.6-4.87,10.18Z"/><path class="cls-1" d="M106.74,425.19l15.45-20.36h-4.4c-5.82,0-8,3.13-9.15,8.58h-.77l.77-9.51h21.8v.51l-15.56,20.47h5.29c6.47,0,8.31-4.17,9.2-9.1h.78l-.83,10H106.74Z"/><path class="cls-1" d="M132.94,424.88h.23c2.62,0,3.21-1,3.21-2.93V394.39c0-1.86-.59-2.88-3.21-2.88h-.29v-.93l10.63-.77v25.61l8-7.15c1.07-1,1.37-1.54,1.37-2.16s-.78-1.13-2.5-1.28v-.93h10.22v.93c-3.33.25-4.52,1.13-6.54,2.87l-3.26,2.83,7.72,11.88c1.19,1.8,2,2.26,4.22,2.47v.93H149.39v-.93c1.43-.05,1.78-.36,1.78-1a3.39,3.39,0,0,0-.59-1.44l-4.93-7.5-2.14,1.85V422c0,1.95.42,2.93,3.09,2.93h.24v.93h-13.9Z"/><path class="cls-1" d="M163.59,421.28c0-3.65,3.44-6.43,15.62-8.64v-1.23c0-5-1.25-7.2-5.17-7.2-3.15,0-5.88,1.44-5.88,2.11,0,.46.42.41,1.19.41,1.72,0,3,1,3,2.67,0,1.54-1.43,2.83-3.39,2.83-2.2,0-3.56-1.44-3.56-3.09,0-3.13,3-6,10.51-6,6.42,0,10.58,2.21,10.58,8.17v11.06c0,1.44.77,1.9,1.6,1.9a3.36,3.36,0,0,0,2-.67l.48.52c-1.19,1.23-2.8,2.11-5.77,2.11-3.2,0-5.58-1.91-5.58-5.3H179a9.79,9.79,0,0,1-8.79,5.45C166.38,426.37,163.59,424.57,163.59,421.28ZM179.21,417v-3.44c-6.42,1.28-8.08,4-8.08,6.68,0,2.06,1.07,3,2.85,3C176,423.23,179.21,420.66,179.21,417Z"/><path class="cls-1" d="M203.44,408.42c0-10.59,7.9-18.3,18.12-18.3a16.14,16.14,0,0,1,7.37,2.06,5.37,5.37,0,0,0,2.31.66c1,0,2-.31,2.68-2.52h.89l.47,14.3h-1.12c-1.91-8.49-6.9-13.58-12.78-13.58-6.53,0-8.61,7.62-8.61,17.18S215.09,425,222,425c6,0,10.81-4,12.47-12h1.37c-1.43,8.64-7.25,13.68-14.73,13.68C211.05,426.63,203.44,418.55,203.44,408.42Z"/><path class="cls-1" d="M239.08,414.85C239.08,408,245.26,403,252,403s12.84,4.88,12.84,11.72-6.24,11.83-13,11.83S239.08,421.74,239.08,414.85Zm17.53,0c0-6.27-1.19-10.9-4.75-10.9s-4.58,4.53-4.58,10.8,1.19,10.9,4.75,10.9S256.61,421.13,256.61,414.85Z"/><path class="cls-1" d="M267,424.88h.24c2.61,0,3.21-1.08,3.21-2.88V407.7c0-1.79-.6-2.87-3.21-2.87H267v-.93l10.75-.51-.53,7.45h.12c1.54-4.27,4.63-7.71,8.73-7.71,2.55,0,4.87,1.28,4.87,4.11a3.68,3.68,0,0,1-3.86,3.7c-2.14,0-3.39-1.18-3.39-2.82a2.78,2.78,0,0,1,1.55-2.42c.53-.26.77-.41.77-.62s-.18-.25-.71-.25c-3.33,0-7.49,3.9-7.49,10.54V422c0,2,.6,2.88,3.21,2.88h1.37v.93H267Z"/><path class="cls-1" d="M294.45,419.74V404.93h-4v-.62c4.87-.82,8.79-3.14,10-9.15h1.3v8.74h7.19v1h-7.19v14.45c0,2.72.77,4.52,3.15,4.52s3.8-1.28,4-6.32h.95c0,6.22-2.61,8.89-7.66,8.89C297.3,426.47,294.45,424.37,294.45,419.74Z"/><path class="cls-1" d="M311.67,414.9c0-7,6.36-11.87,12.89-11.87,6,0,11.59,4.16,11.59,10.74,0,.36-.06,1.19-.06,1.39H319.51c.18,6.27,2.26,9.31,6.95,9.31a10.64,10.64,0,0,0,9-5l.89.51a13.43,13.43,0,0,1-11.94,6.59C317.49,426.58,311.67,422.15,311.67,414.9Zm13.72-.77c2.38,0,3-.82,3-2.77,0-4.12-1.24-7.41-4-7.41-3.09,0-4.75,3.6-4.87,10.18Zm-3.2-13.32-.36-.46,4.22-5.35c1.3-1.64,2.37-1.9,3.56-1.8a2.64,2.64,0,0,1,2.44,2.63c-.06,1-.66,1.8-2.91,2.57Z"/><path class="cls-1" d="M342.38,424.62c-.95,0-1.54.52-2,1.65h-.77v-8.69h1.19a10.35,10.35,0,0,0,10,7.81c3.68,0,5.05-1.59,5.05-3.34,0-2-1.31-2.93-6.54-4.22-5.46-1.33-9.44-3-9.44-7.61s3.74-6.94,9.14-6.94c3.63,0,4.94,1.29,6.72,1.29a2.08,2.08,0,0,0,2.14-1.29h.77v7.25h-1.19a8.76,8.76,0,0,0-8.55-6.32c-2.62,0-4.1,1.28-4.1,3.08,0,2.47,2.31,3,6.35,4.07,5.35,1.33,9.63,3,9.63,7.55,0,4.32-3.81,7.41-10.28,7.41C346.36,426.32,344.1,424.62,342.38,424.62Z"/><path class="cls-1" d="M.32,371.29.06,90.78l141,0v9.73H128c-11.62,0-19.42,4-19.42,9.86s1.61,13,4.8,21l62.83,153.85,15.71-37.46c-31.07-21.25-48.85-58.7-48.85-103.11,0-78.07,51.84-120.2,100.63-120.2,16.91,0,34.31,5.3,53.2,16.21a28,28,0,0,0,11.81,3.32c3.6,0,7.54-2.15,11.86-17.78l.48-1.75h8.7L333,118.5h-10l-.46-1.78c-13.59-52.29-42.71-82.28-79.92-82.28-42.69,0-68.17,40.68-68.17,108.82,0,36.2,8.9,66.65,25.15,86.29l36.79-87.69c3.7-8.81,8.61-21.45,8.61-29.53,0-10.7-15.19-11.85-21.72-11.85H214V90.75h77.42v9.44l-2.08.26c-20,2.52-23.6,5.75-34.83,31.37L208.09,238.29a59.19,59.19,0,0,0,39.43,14.46c39.52,0,68.53-29.7,77.59-79.47l.35-1.95H337.9l-.46,2.76c-9.39,57.23-43.55,90-93.74,90a91,91,0,0,1-42.23-10.64l-32.53,74.69H158.16L70.35,122.53C63.71,107.1,57.83,101.44,38,100.47H9.75L10,361.59H351V9.7H2.79V0H360.68V371.29Z"/></g></g></svg>